<svg xmlns="http://www.w3.org/2000/svg" xmlns:xlink="http://www.w3.org/1999/xlink" width="100.0" height="100.0" viewBox="59.94324588403841 28.733388576771137 15.799965820375682 10.338076985718448" preserveAspectRatio="xMinYMin meet"><g transform="matrix(1,0,0,-1,0,67.80485413926073)"><path fill-rule="evenodd" fill="#66cc99" stroke="#555555" stroke-width="0.31599931640751366" opacity="0.6" d="M 66.51860680528867,37.36278432875879 L 67.07578209825962,37.35614390720929 L 67.82999962755952,37.144994004864685 L 68.13556237170138,37.02311513930431 L 68.85944583524594,37.344335842430596 L 69.19627282092438,37.15114350030743 L 69.51878543485796,37.60899669041342 L 70.11657840361033,37.58822276463209 L 70.27057417184014,37.735164699854025 L 70.3763041523093,38.13839590102752 L 70.80682050973289,38.486281643216415 L 71.34813113799026,38.25890534113216 L 71.23940392444817,37.953265082341886 L 71.54191775908478,37.905774441065645 L 71.44869347523024,37.06564484308052 L 71.8446382994506,36.73817129164692 L 72.1930408059624,36.948287665345674 L 72.63688968291729,37.047558091778356 L 73.26005577992501,37.495256862939 L 73.9486959166465,37.4215662704908 L 74.98000247589542,37.419990139305895 L 75.15802778514092,37.13303091078912 L 74.57589277537298,37.02084137628346 L 74.06755171091783,36.83617564548845 L 72.92002485544447,36.72000702569632 L 71.84629194528392,36.50994232842986 L 71.26234826038575,36.074387518857804 L 71.49876793812109,35.650563259416 L 71.61307620635071,35.153203436822864 L 71.11501875192164,34.733125718722235 L 71.15677330921346,34.34891144463215 L 70.8818030129884,33.98885590263852 L 69.9305432473596,34.02012014417511 L 70.3235941913716,33.35853261975839 L 69.68714725126486,33.105498969041236 L 69.26252200712256,32.5019440780883 L 69.31776411324256,31.901412258424443 L 68.92667687365767,31.620189113892067 L 68.55693200060932,31.713310044882018 L 67.79268924344478,31.58293040620963 L 67.68339358914747,31.30315420178142 L 66.93889122911847,31.304911200479353 L 66.38145755398602,30.738899237586452 L 66.34647260932442,29.887943427036177 L 65.0468620136161,29.472180691031905 L 64.35041873561852,29.560030625928093 L 64.14800215033125,29.340819200145972 L 63.55026085801117,29.468330796826166 L 62.54985680527278,29.31857249604431 L 60.87424848820879,29.829238999952608 L 61.781221551363444,30.735850328081238 L 61.69931440618083,31.379506130492672 L 60.94194461451113,31.548074652628753 L 60.863654819588966,32.18291962333443 L 60.536077915290775,32.98126882581157 L 60.963700392506006,33.52883230237626 L 60.52842980331158,33.676446031218006 L 60.80319339380745,34.40410187431986 L 61.210817091725744,35.650072333309225 L 62.230651483005886,35.270663967422294 L 62.98466230657661,35.40404083916762 L 63.19353844590035,35.857165635718914 L 63.98289594915871,36.0079574651466 L 64.5464791197339,36.31207326918427 L 64.7461051776774,37.111817735333304 L 65.58894778835784,37.30521678318564 L 65.74563073106683,37.66116404881207 L 66.21738488145934,37.39379018813392 L 66.51860680528867,37.36278432875879 z" /></g></svg>